<svg height="2510" width="720" xmlns="http://www.w3.org/2000/svg">
<rect height="2510" fill="#555" width="720"></rect>
<text fill="#7f7" font-family="Courier New" font-size="12" xml:space="preserve">
<tspan x="10" y="26">26 megabytes installed</tspan>
<tspan x="10" y="42"></tspan>
<tspan x="10" y="58">node_modules</tspan>
<tspan x="10" y="74">└─┬ electron-google-oauth@2.0.0 </tspan>
<tspan x="10" y="90">  ├── co@4.6.0 </tspan>
<tspan x="10" y="106">  ├─┬ googleapis@2.1.7 </tspan>
<tspan x="10" y="122">  │ ├── async@1.5.2 </tspan>
<tspan x="10" y="138">  │ ├─┬ gapitoken@0.1.5 </tspan>
<tspan x="10" y="154">  │ │ └─┬ jws@3.0.0 </tspan>
<tspan x="10" y="170">  │ │   ├─┬ base64url@1.0.6 </tspan>
<tspan x="10" y="186">  │ │   │ ├─┬ concat-stream@1.4.10 </tspan>
<tspan x="10" y="202">  │ │   │ │ ├─┬ readable-stream@1.1.14 </tspan>
<tspan x="10" y="218">  │ │   │ │ │ └── isarray@0.0.1 </tspan>
<tspan x="10" y="234">  │ │   │ │ └── typedarray@0.0.6 </tspan>
<tspan x="10" y="250">  │ │   │ └─┬ meow@2.0.0 </tspan>
<tspan x="10" y="266">  │ │   │   ├─┬ camelcase-keys@1.0.0 </tspan>
<tspan x="10" y="282">  │ │   │   │ ├── camelcase@1.2.1 </tspan>
<tspan x="10" y="298">  │ │   │   │ └── map-obj@1.0.1 </tspan>
<tspan x="10" y="314">  │ │   │   ├─┬ indent-string@1.2.2 </tspan>
<tspan x="10" y="330">  │ │   │   │ ├── get-stdin@4.0.1 </tspan>
<tspan x="10" y="346">  │ │   │   │ └─┬ repeating@1.1.3 </tspan>
<tspan x="10" y="362">  │ │   │   │   └── is-finite@1.0.2 </tspan>
<tspan x="10" y="378">  │ │   │   ├── minimist@1.2.0 </tspan>
<tspan x="10" y="394">  │ │   │   └── object-assign@1.0.0 </tspan>
<tspan x="10" y="410">  │ │   └─┬ jwa@1.0.2 </tspan>
<tspan x="10" y="426">  │ │     ├── base64url@0.0.6 </tspan>
<tspan x="10" y="442">  │ │     ├── buffer-equal-constant-time@1.0.1 </tspan>
<tspan x="10" y="458">  │ │     └─┬ ecdsa-sig-formatter@1.0.9 </tspan>
<tspan x="10" y="474">  │ │       └── base64url@2.0.0 </tspan>
<tspan x="10" y="490">  │ ├─┬ google-auth-library@0.9.10 </tspan>
<tspan x="10" y="506">  │ │ ├── async@1.4.2 </tspan>
<tspan x="10" y="522">  │ │ ├─┬ gtoken@1.2.2 </tspan>
<tspan x="10" y="538">  │ │ │ ├─┬ google-p12-pem@0.1.2 </tspan>
<tspan x="10" y="554">  │ │ │ │ └── node-forge@0.7.1 </tspan>
<tspan x="10" y="570">  │ │ │ ├── mime@1.3.4 </tspan>
<tspan x="10" y="586">  │ │ │ └─┬ request@2.81.0 </tspan>
<tspan x="10" y="602">  │ │ │   ├── caseless@0.12.0 </tspan>
<tspan x="10" y="618">  │ │ │   ├─┬ form-data@2.1.4 </tspan>
<tspan x="10" y="634">  │ │ │   │ └── asynckit@0.4.0 </tspan>
<tspan x="10" y="650">  │ │ │   ├─┬ har-validator@4.2.1 </tspan>
<tspan x="10" y="666">  │ │ │   │ ├─┬ ajv@4.11.7 </tspan>
<tspan x="10" y="682">  │ │ │   │ │ └─┬ json-stable-stringify@1.0.1 </tspan>
<tspan x="10" y="698">  │ │ │   │ │   └── jsonify@0.0.0 </tspan>
<tspan x="10" y="714">  │ │ │   │ └── har-schema@1.0.5 </tspan>
<tspan x="10" y="730">  │ │ │   ├─┬ http-signature@1.1.1 </tspan>
<tspan x="10" y="746">  │ │ │   │ └── assert-plus@0.2.0 </tspan>
<tspan x="10" y="762">  │ │ │   ├── performance-now@0.2.0 </tspan>
<tspan x="10" y="778">  │ │ │   ├── qs@6.4.0 </tspan>
<tspan x="10" y="794">  │ │ │   ├── safe-buffer@5.0.1 </tspan>
<tspan x="10" y="810">  │ │ │   ├── tough-cookie@2.3.2 </tspan>
<tspan x="10" y="826">  │ │ │   ├── tunnel-agent@0.6.0 </tspan>
<tspan x="10" y="842">  │ │ │   └── uuid@3.0.1 </tspan>
<tspan x="10" y="858">  │ │ ├── lodash.noop@3.0.1 </tspan>
<tspan x="10" y="874">  │ │ └─┬ request@2.74.0 </tspan>
<tspan x="10" y="890">  │ │   ├── aws4@1.6.0 </tspan>
<tspan x="10" y="906">  │ │   ├─┬ bl@1.1.2 </tspan>
<tspan x="10" y="922">  │ │   │ └─┬ readable-stream@2.0.6 </tspan>
<tspan x="10" y="938">  │ │   │   └── isarray@1.0.0 </tspan>
<tspan x="10" y="954">  │ │   ├─┬ http-signature@1.1.1 </tspan>
<tspan x="10" y="970">  │ │   │ ├── assert-plus@0.2.0 </tspan>
<tspan x="10" y="986">  │ │   │ ├─┬ jsprim@1.4.0 </tspan>
<tspan x="10" y="1002">  │ │   │ │ ├── assert-plus@1.0.0 </tspan>
<tspan x="10" y="1018">  │ │   │ │ ├── extsprintf@1.0.2 </tspan>
<tspan x="10" y="1034">  │ │   │ │ ├── json-schema@0.2.3 </tspan>
<tspan x="10" y="1050">  │ │   │ │ └── verror@1.3.6 </tspan>
<tspan x="10" y="1066">  │ │   │ └─┬ sshpk@1.13.0 </tspan>
<tspan x="10" y="1082">  │ │   │   ├── asn1@0.2.3 </tspan>
<tspan x="10" y="1098">  │ │   │   ├── assert-plus@1.0.0 </tspan>
<tspan x="10" y="1114">  │ │   │   ├── bcrypt-pbkdf@1.0.1 </tspan>
<tspan x="10" y="1130">  │ │   │   ├─┬ dashdash@1.14.1 </tspan>
<tspan x="10" y="1146">  │ │   │   │ └── assert-plus@1.0.0 </tspan>
<tspan x="10" y="1162">  │ │   │   ├── ecc-jsbn@0.1.1 </tspan>
<tspan x="10" y="1178">  │ │   │   ├─┬ getpass@0.1.6 </tspan>
<tspan x="10" y="1194">  │ │   │   │ └── assert-plus@1.0.0 </tspan>
<tspan x="10" y="1210">  │ │   │   ├── jodid25519@1.0.2 </tspan>
<tspan x="10" y="1226">  │ │   │   ├── jsbn@0.1.1 </tspan>
<tspan x="10" y="1242">  │ │   │   └── tweetnacl@0.14.5 </tspan>
<tspan x="10" y="1258">  │ │   ├── is-typedarray@1.0.0 </tspan>
<tspan x="10" y="1274">  │ │   ├── qs@6.2.3 </tspan>
<tspan x="10" y="1290">  │ │   └─┬ tough-cookie@2.3.2 </tspan>
<tspan x="10" y="1306">  │ │     └── punycode@1.4.1 </tspan>
<tspan x="10" y="1322">  │ ├─┬ request@2.65.0 </tspan>
<tspan x="10" y="1338">  │ │ ├── aws-sign2@0.6.0 </tspan>
<tspan x="10" y="1354">  │ │ ├─┬ bl@1.0.3 </tspan>
<tspan x="10" y="1370">  │ │ │ └─┬ readable-stream@2.0.6 </tspan>
<tspan x="10" y="1386">  │ │ │   ├── core-util-is@1.0.2 </tspan>
<tspan x="10" y="1402">  │ │ │   ├── inherits@2.0.3 </tspan>
<tspan x="10" y="1418">  │ │ │   ├── isarray@1.0.0 </tspan>
<tspan x="10" y="1434">  │ │ │   ├── process-nextick-args@1.0.7 </tspan>
<tspan x="10" y="1450">  │ │ │   ├── string_decoder@0.10.31 </tspan>
<tspan x="10" y="1466">  │ │ │   └── util-deprecate@1.0.2 </tspan>
<tspan x="10" y="1482">  │ │ ├── caseless@0.11.0 </tspan>
<tspan x="10" y="1498">  │ │ ├─┬ combined-stream@1.0.5 </tspan>
<tspan x="10" y="1514">  │ │ │ └── delayed-stream@1.0.0 </tspan>
<tspan x="10" y="1530">  │ │ ├── extend@3.0.0 </tspan>
<tspan x="10" y="1546">  │ │ ├── forever-agent@0.6.1 </tspan>
<tspan x="10" y="1562">  │ │ ├─┬ form-data@1.0.1 </tspan>
<tspan x="10" y="1578">  │ │ │ └─┬ async@2.3.0 </tspan>
<tspan x="10" y="1594">  │ │ │   └── lodash@4.17.4 </tspan>
<tspan x="10" y="1610">  │ │ ├─┬ har-validator@2.0.6 </tspan>
<tspan x="10" y="1626">  │ │ │ ├─┬ chalk@1.1.3 </tspan>
<tspan x="10" y="1642">  │ │ │ │ ├── ansi-styles@2.2.1 </tspan>
<tspan x="10" y="1658">  │ │ │ │ ├── escape-string-regexp@1.0.5 </tspan>
<tspan x="10" y="1674">  │ │ │ │ ├── has-ansi@2.0.0 </tspan>
<tspan x="10" y="1690">  │ │ │ │ └── supports-color@2.0.0 </tspan>
<tspan x="10" y="1706">  │ │ │ ├─┬ commander@2.9.0 </tspan>
<tspan x="10" y="1722">  │ │ │ │ └── graceful-readlink@1.0.1 </tspan>
<tspan x="10" y="1738">  │ │ │ ├─┬ is-my-json-valid@2.16.0 </tspan>
<tspan x="10" y="1754">  │ │ │ │ ├── generate-function@2.0.0 </tspan>
<tspan x="10" y="1770">  │ │ │ │ ├─┬ generate-object-property@1.2.0 </tspan>
<tspan x="10" y="1786">  │ │ │ │ │ └── is-property@1.0.2 </tspan>
<tspan x="10" y="1802">  │ │ │ │ ├── jsonpointer@4.0.1 </tspan>
<tspan x="10" y="1818">  │ │ │ │ └── xtend@4.0.1 </tspan>
<tspan x="10" y="1834">  │ │ │ └─┬ pinkie-promise@2.0.1 </tspan>
<tspan x="10" y="1850">  │ │ │   └── pinkie@2.0.4 </tspan>
<tspan x="10" y="1866">  │ │ ├─┬ hawk@3.1.3 </tspan>
<tspan x="10" y="1882">  │ │ │ ├── boom@2.10.1 </tspan>
<tspan x="10" y="1898">  │ │ │ ├── cryptiles@2.0.5 </tspan>
<tspan x="10" y="1914">  │ │ │ ├── hoek@2.16.3 </tspan>
<tspan x="10" y="1930">  │ │ │ └── sntp@1.0.9 </tspan>
<tspan x="10" y="1946">  │ │ ├─┬ http-signature@0.11.0 </tspan>
<tspan x="10" y="1962">  │ │ │ ├── asn1@0.1.11 </tspan>
<tspan x="10" y="1978">  │ │ │ ├── assert-plus@0.1.5 </tspan>
<tspan x="10" y="1994">  │ │ │ └── ctype@0.5.3 </tspan>
<tspan x="10" y="2010">  │ │ ├── isstream@0.1.2 </tspan>
<tspan x="10" y="2026">  │ │ ├── json-stringify-safe@5.0.1 </tspan>
<tspan x="10" y="2042">  │ │ ├─┬ mime-types@2.1.15 </tspan>
<tspan x="10" y="2058">  │ │ │ └── mime-db@1.27.0 </tspan>
<tspan x="10" y="2074">  │ │ ├── node-uuid@1.4.8 </tspan>
<tspan x="10" y="2090">  │ │ ├── oauth-sign@0.8.2 </tspan>
<tspan x="10" y="2106">  │ │ ├── qs@5.2.1 </tspan>
<tspan x="10" y="2122">  │ │ ├── stringstream@0.0.5 </tspan>
<tspan x="10" y="2138">  │ │ ├── tough-cookie@2.2.2 </tspan>
<tspan x="10" y="2154">  │ │ └── tunnel-agent@0.4.3 </tspan>
<tspan x="10" y="2170">  │ └── string-template@0.2.1 </tspan>
<tspan x="10" y="2186">  ├─┬ node-fetch@1.6.3 </tspan>
<tspan x="10" y="2202">  │ ├─┬ encoding@0.1.12 </tspan>
<tspan x="10" y="2218">  │ │ └── iconv-lite@0.4.15 </tspan>
<tspan x="10" y="2234">  │ └── is-stream@1.1.0 </tspan>
<tspan x="10" y="2250">  └─┬ yargs@3.32.0 </tspan>
<tspan x="10" y="2266">    ├── camelcase@2.1.1 </tspan>
<tspan x="10" y="2282">    ├─┬ cliui@3.2.0 </tspan>
<tspan x="10" y="2298">    │ ├─┬ strip-ansi@3.0.1 </tspan>
<tspan x="10" y="2314">    │ │ └── ansi-regex@2.1.1 </tspan>
<tspan x="10" y="2330">    │ └── wrap-ansi@2.1.0 </tspan>
<tspan x="10" y="2346">    ├── decamelize@1.2.0 </tspan>
<tspan x="10" y="2362">    ├─┬ os-locale@1.4.0 </tspan>
<tspan x="10" y="2378">    │ └─┬ lcid@1.0.0 </tspan>
<tspan x="10" y="2394">    │   └── invert-kv@1.0.0 </tspan>
<tspan x="10" y="2410">    ├─┬ string-width@1.0.2 </tspan>
<tspan x="10" y="2426">    │ ├── code-point-at@1.1.0 </tspan>
<tspan x="10" y="2442">    │ └─┬ is-fullwidth-code-point@1.0.0 </tspan>
<tspan x="10" y="2458">    │   └── number-is-nan@1.0.1 </tspan>
<tspan x="10" y="2474">    ├── window-size@0.1.4 </tspan>
<tspan x="10" y="2490">    └── y18n@3.2.1</tspan>
</text>
</svg>
